<?xml version="1.0" standalone="no"?>
<!DOCTYPE svg PUBLIC "-//W3C//DTD SVG 20010904//EN"
 "http://www.w3.org/TR/2001/REC-SVG-20010904/DTD/svg10.dtd">
<svg version="1.0" xmlns="http://www.w3.org/2000/svg"
 width="670.000000pt" height="670.000000pt" viewBox="0 0 670.000000 670.000000"
 preserveAspectRatio="xMidYMid meet">
<metadata>
Created by potrace 1.11, written by Peter Selinger 2001-2013
</metadata>
<g transform="translate(0.000000,670.000000) scale(0.100000,-0.100000)"
fill="#000000" stroke="none">
<path d="M3250 6402 c-30 -10 -66 -24 -80 -32 -20 -11 -314 -235 -425 -325
-16 -13 -129 -100 -250 -194 -121 -93 -299 -231 -395 -306 -96 -75 -188 -146
-204 -158 -46 -36 -409 -316 -436 -338 -14 -11 -108 -84 -208 -162 -389 -301
-577 -447 -587 -455 -5 -4 -71 -55 -145 -112 -74 -58 -139 -108 -145 -113
-279 -217 -309 -247 -347 -354 -20 -58 -26 -154 -14 -213 19 -86 93 -194 181
-260 48 -36 110 -85 115 -90 3 -3 61 -50 130 -105 69 -55 131 -105 138 -112 7
-7 20 -17 29 -21 13 -8 5 -20 -46 -70 -91 -89 -131 -189 -125 -308 6 -128 55
-217 174 -314 30 -25 60 -49 67 -55 16 -13 28 -22 83 -65 25 -19 50 -39 56
-45 6 -5 28 -23 49 -40 46 -36 745 -593 795 -634 19 -16 64 -52 100 -80 36
-28 72 -57 80 -64 135 -111 1278 -1020 1312 -1043 113 -77 256 -89 388 -32 29
12 162 107 180 127 3 4 106 87 230 186 124 99 227 182 230 185 3 3 72 59 155
124 82 66 156 125 165 132 8 7 76 62 150 121 74 60 340 273 590 473 250 200
457 367 460 370 3 3 25 21 50 40 25 19 47 37 50 40 3 3 39 32 80 65 41 33 84
67 95 76 11 10 56 46 99 80 104 83 148 129 176 187 91 180 43 380 -122 510
l-37 29 217 174 c119 95 238 193 263 217 160 151 166 413 13 566 -16 15 -141
117 -279 225 -137 107 -257 201 -265 208 -29 23 -495 388 -522 408 -14 11
-158 124 -319 251 -162 127 -400 313 -529 415 -129 101 -242 189 -250 196 -24
20 -372 292 -404 316 -50 38 -190 148 -211 165 -163 136 -260 199 -335 219
-60 16 -161 14 -220 -5z"/>
</g>
</svg>
