<?xml version="1.0" encoding="UTF-8"?>
<svg width="670px" height="617px" viewBox="0 0 670 617" version="1.1" xmlns="http://www.w3.org/2000/svg" xmlns:xlink="http://www.w3.org/1999/xlink">
    <!-- Generator: Sketch 64 (93537) - https://sketch.com -->
    <title>Education</title>
    <desc>Created with Sketch.</desc>
    <g id="Education" stroke="none" stroke-width="1" fill="none" fill-rule="evenodd">
        <g id="Group" transform="translate(-25.000000, -90.000000)">
            <path d="M219.024399,283.239017 L536.03377,244.924546 C557.965554,242.273821 577.893616,257.904208 580.544341,279.835992 C580.91148,282.873655 580.928864,285.943413 580.596154,288.985039 L545.403996,610.710439 C543.368104,629.32249 528.69412,644.032098 510.08706,646.113113 L187.082981,682.23792 C165.12847,684.693315 145.340332,668.886158 142.884938,646.931647 C142.532976,643.784637 142.555958,640.606965 142.9534,637.465375 L183.268163,318.796905 C185.627258,300.149414 200.364074,285.494346 219.024399,283.239017 Z" id="Rectangle" fill="#0097A7" transform="translate(361.325967, 463.381475) rotate(45.000000) translate(-361.325967, -463.381475) "></path>
            <path d="M195.108187,156.761469 L563.879263,112.133503 C585.810641,109.47941 605.741102,125.106736 608.395195,147.038113 C608.762824,150.075911 608.780659,153.14586 608.448351,156.187724 L567.513636,530.893802 C565.480339,549.506088 550.80847,564.217717 532.201755,566.301377 L156.584008,608.364658 C134.629847,610.823178 114.839458,595.018839 112.380937,573.064678 C112.028554,569.917957 112.051053,566.740524 112.447962,563.599109 L159.357376,192.325122 C161.713494,173.677151 176.448106,159.019676 195.108187,156.761469 Z" id="Rectangle" fill="#00BCD4" transform="translate(360.000000, 360.048979) rotate(45.000000) translate(-360.000000, -360.048979) "></path>
        </g>
        <g id="Logo" transform="translate(195.000000, 159.000000)">
            <g id="g931" transform="translate(61.500000, 104.000000) scale(-1, 1) rotate(-180.000000) translate(-61.500000, -104.000000) translate(0.000000, -0.000000)" fill="#FFFFFF" fill-rule="nonzero">
                <polygon id="path933" points="0 0 0 207.9636 25.9384068 207.9636 25.9384068 23.0724 122.813415 23.0724 122.813415 0"></polygon>
            </g>
            <g id="g935" transform="translate(61.500000, 104.000000) scale(-1, 1) rotate(-180.000000) translate(-61.500000, -104.000000) translate(0.000000, -0.000000)" stroke="#FFFFFF" stroke-width="26.666666">
                <polygon id="path937" points="0 0 0 207.9636 25.9384068 207.9636 25.9384068 23.0724 122.813415 23.0724 122.813415 0"></polygon>
            </g>
            <g id="g939" transform="translate(250.500000, 124.500000) scale(-1, 1) rotate(-180.000000) translate(-250.500000, -124.500000) translate(176.000000, 35.000000)">
                <g id="g941-Clipped" transform="translate(0.000000, -0.000000)">
                    <g id="g941" transform="translate(0.000015, 0.260596)">
                        <g id="g947" transform="translate(0.723188, 0.681875)" fill="#FFFFFF" fill-rule="nonzero">
                            <path d="M0,70.8704495 L0,176.479926 L24.6357062,176.479926 L24.6357062,72.432726 C24.6357062,41.8135652 41.7855278,22.4398772 73.5919563,22.4398772 C105.399425,22.4398772 122.862329,41.8135652 122.862329,72.432726 L122.862329,176.479926 L147.496995,176.479926 L147.496995,70.8704495 C147.496995,28.3784039 122.549246,0.881711768 73.5919563,0.881711768 C24.6357062,0.881711768 0,28.6889833 0,70.8704495" id="path949"></path>
                        </g>
                        <g id="g951" transform="translate(0.723188, 0.681875)" stroke="#FFFFFF" stroke-width="26.666666">
                            <path d="M0,70.8704495 L0,176.479926 L24.6357062,176.479926 L24.6357062,72.432726 C24.6357062,41.8135652 41.7855278,22.4398772 73.5919563,22.4398772 C105.399425,22.4398772 122.862329,41.8135652 122.862329,72.432726 L122.862329,176.479926 L147.496995,176.479926 L147.496995,70.8704495 C147.496995,28.3784039 122.549246,0.881711768 73.5919563,0.881711768 C24.6357062,0.881711768 0,28.6889833 0,70.8704495 Z" id="path953"></path>
                        </g>
                    </g>
                </g>
            </g>
        </g>
    </g>
</svg>