<?xml version="1.0" encoding="UTF-8"?>
<svg id="Layer_1" data-name="Layer 1" xmlns="http://www.w3.org/2000/svg" viewBox="0 0 722.02 619.02">
  <defs>
    <style>
      .cls-1 {
        fill: #fff;
      }

      .cls-2 {
        fill: #f4882f;
      }

      .cls-3 {
        fill: #d63030;
      }

      .cls-4 {
        fill: #48ba3c;
      }

      .cls-5 {
        fill: #b0f7f5;
      }
    </style>
  </defs>
  <g>
    <polygon class="cls-2" points="361.51 134.91 449 75.8 405.25 164.47 361.51 253.14 317.76 164.47 274.02 75.8 361.51 134.91"/>
    <circle class="cls-1" cx="359.14" cy="66.34" r="42.56"/>
  </g>
  <g>
    <polygon class="cls-4" points="457.17 184.74 532.07 210.75 459.08 224.34 386.09 237.93 419.72 171.74 453.36 105.55 457.17 184.74"/>
    <circle class="cls-1" cx="493.79" cy="158.38" r="31.96"/>
  </g>
  <g>
    <polygon class="cls-3" points="266.17 184.66 273.12 105.68 304.11 173.15 335.1 240.62 262.7 224.15 190.3 207.69 266.17 184.66"/>
    <circle class="cls-1" cx="229.8" cy="158.31" r="31.96"/>
  </g>
  <g>
    <polygon class="cls-5" points="19.51 601.62 242.38 601.62 242.38 478.93 242.38 381.05 152.31 335.01 152.31 478.93 152.31 555.57 109.57 555.57 109.57 297.96 458.36 476.29 458.36 411.17 19.51 186.8 19.51 601.62"/>
    <path class="cls-5" d="m702.25,186.8c-49.74.04-90.01,20.68-89.94,46.11l.82,257.38-22.67-11.59v65.12l113.05,57.8-1.26-414.82Z"/>
    <polygon class="cls-5" points="152.31 140.96 152.31 239.5 242.38 285.54 242.38 252.13 360.88 312.71 479.38 252.13 479.38 601.62 569.45 601.62 569.45 140.96 360.88 247.59 152.31 140.96"/>
  </g>
</svg>