<?xml version="1.0" encoding="utf-8"?>
<!-- Generator: Adobe Illustrator 27.1.1, SVG Export Plug-In . SVG Version: 6.00 Build 0)  -->
<svg version="1.1" id="Layer_1" xmlns="http://www.w3.org/2000/svg" xmlns:xlink="http://www.w3.org/1999/xlink" x="0px" y="0px"
	 viewBox="0 0 722 619" style="enable-background:new 0 0 722 619;" xml:space="preserve">
<style type="text/css">
	.st0{fill:#FFFFFF;}
</style>
<g>
	<polygon class="st0" points="361.5,134.9 449,75.8 405.2,164.5 361.5,253.1 317.8,164.5 274,75.8 	"/>
	<circle class="st0" cx="359.1" cy="66.3" r="42.6"/>
</g>
<g>
	<polygon class="st0" points="457.2,184.7 532.1,210.8 459.1,224.3 386.1,237.9 419.7,171.7 453.4,105.6 	"/>
	<circle class="st0" cx="493.8" cy="158.4" r="32"/>
</g>
<g>
	<polygon class="st0" points="266.2,184.7 273.1,105.7 304.1,173.2 335.1,240.6 262.7,224.2 190.3,207.7 	"/>
	<circle class="st0" cx="229.8" cy="158.3" r="32"/>
</g>
<g>
	<polygon class="st0" points="19.5,601.6 242.4,601.6 242.4,478.9 242.4,381.1 152.3,335 152.3,478.9 152.3,555.6 109.6,555.6 
		109.6,298 458.4,476.3 458.4,411.2 19.5,186.8 	"/>
	<path class="st0" d="M702.2,186.8c-49.7,0-90,20.7-89.9,46.1l0.8,257.4l-22.7-11.6v65.1l113,57.8L702.2,186.8L702.2,186.8z"/>
	<polygon class="st0" points="152.3,141 152.3,239.5 242.4,285.5 242.4,252.1 360.9,312.7 479.4,252.1 479.4,601.6 569.5,601.6 
		569.5,141 360.9,247.6 	"/>
</g>
</svg>
