<?xml version="1.0" encoding="UTF-8"?>
<svg width="153px" height="151px" viewBox="0 0 153 151" version="1.1" xmlns="http://www.w3.org/2000/svg" xmlns:xlink="http://www.w3.org/1999/xlink">
    <!-- Generator: Sketch 64 (93537) - https://sketch.com -->
    <title>money</title>
    <desc>Created with Sketch.</desc>
    <g id="Education-Light" stroke="none" stroke-width="1" fill="none" fill-rule="evenodd">
        <g id="Landing" transform="translate(-280.000000, -2333.000000)" fill="#000000" fill-rule="nonzero">
            <g id="Main-Feature" transform="translate(188.000000, 1406.000000)">
                <g id="Counter-3" transform="translate(0.000000, 835.000000)">
                    <g id="money" transform="translate(91.500000, 92.000000)">
                        <path d="M78.499712,92 C61.931207,92 48.5,105.207826 48.5,121.500189 C48.5,137.792552 61.931591,151 78.500096,151 C95.068601,151 108.5,137.792363 108.5,121.5 C108.481324,105.215102 95.0606251,92.0182083 78.499712,92 L78.499712,92 Z M76.099689,119.139977 L80.899735,119.139977 C84.8700812,119.139977 88.0998042,121.963249 88.0998042,125.433497 L88.0998042,129.366475 C88.0998042,132.836723 84.8700812,135.659994 80.899735,135.659994 L80.899735,139.199958 C80.899735,140.503362 79.8252081,141.55998 78.499712,141.55998 C77.1742159,141.55998 76.099689,140.503362 76.099689,139.199958 L76.099689,135.659994 C72.1293428,135.659994 68.8996198,132.836723 68.8996198,129.366475 C68.8996198,128.06307 69.9741468,127.006452 71.2996429,127.006452 C72.625139,127.006452 73.6996659,128.06307 73.6996659,129.366475 C73.6996659,130.110897 74.6852234,130.939949 76.099689,130.939949 L80.899735,130.939949 C82.3142006,130.939949 83.2997581,130.110897 83.2997581,129.366475 L83.2997581,125.433497 C83.2997581,124.689075 82.3142006,123.859952 80.899735,123.859952 L76.099689,123.859952 C72.1293428,123.859952 68.8996198,121.036751 68.8996198,117.566432 L68.8996198,113.633513 C68.8996198,110.163195 72.1293428,107.339994 76.099689,107.339994 L76.099689,103.79996 C76.099689,102.496555 77.1742159,101.439937 78.499712,101.439937 C79.8252081,101.439937 80.899735,102.496555 80.899735,103.79996 L80.899735,107.339994 C84.8700812,107.339994 88.0998042,110.163195 88.0998042,113.633513 C88.0998042,114.936918 87.0252772,115.993536 85.6997811,115.993536 C84.374285,115.993536 83.2997581,114.936918 83.2997581,113.633513 C83.2997581,112.889092 82.3142006,112.059968 80.899735,112.059968 L76.099689,112.059968 C74.6852234,112.059968 73.6996659,112.889092 73.6996659,113.633513 L73.6996659,117.566432 C73.6996659,118.310854 74.6852234,119.139966 76.099689,119.139966 L76.099689,119.139977 Z" id="Shape"></path>
                        <path d="M49.9135603,100 C56.4885908,91.8883744 66.4576037,87.1642473 77,87.1642473 C87.5423963,87.1642473 97.5114092,91.8883744 104.08644,100 C112.025232,92.5616629 116.513014,82.2410585 116.499972,71.4525224 C116.499972,58.358365 102.667374,39.0792082 90.8386255,24.9882322 L98.290601,10.3793536 C98.6739845,9.62749752 98.6214266,8.73154399 98.1526744,8.02812029 C97.9656482,7.74853276 93.4968879,1.16435831 86.2542981,0.158738631 C82.3067846,-0.302275881 78.3355198,0.805737537 75.2209226,3.23713521 C72.472283,0.861682878 68.8472908,-0.287857005 65.2068251,0.0615133329 C58.1465814,0.89685914 53.6252264,7.76342524 53.4358421,8.05516004 C52.9601879,8.79050825 52.9354637,9.72416488 53.3715529,10.4829059 L62.3057817,26.0118313 C50.6762803,40.0013993 37.5000283,58.6730865 37.5000283,71.4525224 C37.486986,82.2410585 41.974768,92.5616629 49.9135603,100 Z M74.606064,58.8882381 L79.393936,58.8882381 C83.3585197,58.8924913 86.5713833,62.0549544 86.5757438,65.9573844 L86.5757438,70.6701957 C86.5713833,74.5726258 83.3585197,77.7350889 79.393936,77.739342 L79.393936,82.4520827 C79.393936,83.7534896 78.3221343,84.8084883 77,84.8084883 C75.6778657,84.8084883 74.606064,83.7534896 74.606064,82.4520827 L74.606064,77.739342 C70.6414803,77.7350889 67.4286167,74.5726258 67.4242562,70.6701957 C67.4242562,69.3687888 68.4960578,68.3137901 69.8181921,68.3137901 C71.1403265,68.3137901 72.2121281,69.3687888 72.2121281,70.6701957 C72.2136716,71.9709614 73.2845812,73.0250504 74.606064,73.0265307 L79.393936,73.0265307 C80.7154188,73.0250504 81.7863284,71.9709614 81.7878719,70.6701957 L81.7878719,65.9573844 C81.7863547,64.6566081 80.7154297,63.6025038 79.393936,63.6010495 L74.606064,63.6010495 C70.641455,63.5967898 67.4285837,60.4342874 67.4242562,56.5318325 L67.4242562,51.8190918 C67.4286167,47.9166618 70.6414803,44.7541987 74.606064,44.7499455 L74.606064,40.0372167 C74.606064,38.7358098 75.6778657,37.680811 77,37.680811 C78.3221343,37.680811 79.393936,38.7358098 79.393936,40.0372167 L79.393936,44.7499573 C83.3585197,44.7542105 86.5713833,47.9166736 86.5757438,51.8191036 C86.5757438,53.1205105 85.5039422,54.1755093 84.1818079,54.1755093 C82.8596735,54.1755093 81.7878719,53.1205105 81.7878719,51.8191036 C81.7863614,50.5183131 80.7154441,49.4641848 79.393936,49.462698 L74.606064,49.462698 C73.2845559,49.4641848 72.2136386,50.5183131 72.2121281,51.8191036 L72.2121281,56.5318442 C72.2136452,57.8326302 73.2845606,58.8867513 74.606064,58.8882381 L74.606064,58.8882381 Z M58.3055626,9.49570152 C59.6194265,7.91191414 62.3757206,5.13381791 65.7971338,4.73858977 C68.2892212,4.44691387 70.8550297,5.52617123 73.4126032,7.93837658 C73.858191,8.35891084 74.4516422,8.59368175 75.0689555,8.59363408 L75.2244177,8.59363408 C75.7964621,8.59348722 76.349574,8.39187286 76.7837438,8.02524547 C79.7562941,5.51294001 82.7078016,4.43425997 85.5587759,4.82142921 C89.2057937,5.31675746 92.0240428,8.05688022 93.3378707,9.58544523 L86.2192269,23.5424713 L66.3874306,23.5424713 L58.3055626,9.49570152 Z" id="Shape"></path>
                        <path d="M30.3826283,126.999987 C34.5264387,127.001933 38.6250739,126.150313 42.4165181,124.499564 C42.3685864,123.76492 42.3356797,123.026346 42.3356797,122.279985 C42.3356797,121.466576 42.3749335,120.662453 42.4317583,119.863086 L42.4313041,119.860985 C42.4552102,119.648526 42.4671632,119.424315 42.4791163,119.200186 L42.4831325,119.198463 C42.9426295,114.118851 44.554715,109.206546 47.1998066,104.825937 C43.1782314,101.167 39.8687765,96.8125151 37.4349286,91.9775933 C36.1637571,91.9200448 35.1632925,90.8856073 35.1638489,89.6293939 C35.1638489,88.8859941 34.1836986,88.0599944 32.7732386,88.0599944 L27.9920181,88.0599944 C26.581558,88.0599944 25.6014078,88.8859941 25.6014078,89.6293939 L25.6014078,93.5705928 C25.6014078,94.3139926 26.581558,95.1399924 27.9920181,95.1399924 L32.7732386,95.1399924 C36.7296986,95.1399924 39.9450694,97.9601916 39.9450694,101.429391 L39.9450694,105.370589 C39.9450694,108.839789 36.7296986,111.659988 32.7732386,111.659988 L32.7732386,115.199987 C32.7732386,116.503378 31.7029259,117.559986 30.3826283,117.559986 C29.0623307,117.559986 27.9920181,116.503378 27.9920181,115.199987 L27.9920181,111.659988 C24.0355581,111.659988 20.8201873,108.839789 20.8201873,105.370589 C20.8201873,104.067198 21.8904999,103.01059 23.2107975,103.01059 C24.5310951,103.01059 25.6014078,104.067198 25.6014078,105.370589 C25.6014078,106.113989 26.581558,106.939989 27.9920181,106.939989 L32.7732386,106.939989 C34.1836986,106.939989 35.1638489,106.113989 35.1638489,105.370589 L35.1638489,101.429391 C35.1638489,100.685991 34.1836986,99.859991 32.7732386,99.859991 L27.9920181,99.859991 C24.0355581,99.859991 20.8201873,97.0397918 20.8201873,93.5705928 L20.8201873,89.6293939 C20.8201873,86.1601949 24.0355581,83.3399957 27.9920181,83.3399957 L27.9920181,79.7999967 C27.9920181,78.496605 29.0623307,77.4399973 30.3826283,77.4399973 C31.7029259,77.4399973 32.7732386,78.496605 32.7732386,79.7999967 L32.7732386,83.3399957 C33.2543157,83.3411439 33.7343336,83.3845821 34.2076048,83.4697957 C34.2547356,83.6503356 34.3139869,83.8257308 34.3635084,84.0052795 C33.308726,80.1986887 32.7739038,76.2700297 32.7732386,72.3235896 C32.7850754,70.9183028 32.9073274,69.5160401 33.1388944,68.1294224 C32.2320522,68.0471056 31.3133288,68 30.3826283,68 C13.8789084,68 0.5,81.2075962 0.5,97.5 C0.5,113.792387 13.8789084,126.999987 30.3826283,126.999987 L30.3826283,126.999987 Z M123.616429,68 C122.685728,68 121.767005,68.0471056 120.860163,68.1294224 C121.09173,69.5160401 121.213982,70.9183028 121.225818,72.3235896 C121.226538,76.1358604 120.729132,79.9322997 119.745911,83.6189358 C119.759334,83.5685262 119.778184,83.5202642 119.79144,83.4697839 C120.264716,83.3845736 120.744738,83.3411393 121.225818,83.3399957 L121.225818,79.7999967 C121.225818,78.496605 122.296131,77.4399973 123.616429,77.4399973 C124.936726,77.4399973 126.007039,78.496605 126.007039,79.7999967 L126.007039,83.3399957 C129.963499,83.3399957 133.17887,86.1601949 133.17887,89.6293939 C133.17887,90.9327856 132.108557,91.9893933 130.78826,91.9893933 C129.467962,91.9893933 128.397649,90.9327856 128.397649,89.6293939 C128.397649,88.8860649 127.417499,88.0599944 126.007039,88.0599944 L121.225818,88.0599944 C119.815358,88.0599944 118.835208,88.8859941 118.835208,89.6293939 L118.835208,93.5705928 C118.835208,94.3139926 119.815358,95.1399924 121.225818,95.1399924 L126.007039,95.1399924 C129.963499,95.1399924 133.17887,97.9601916 133.17887,101.429391 L133.17887,105.370589 C133.17887,108.839789 129.963499,111.659988 126.007039,111.659988 L126.007039,115.199987 C126.007039,116.503378 124.936726,117.559986 123.616429,117.559986 C122.296131,117.559986 121.225818,116.503378 121.225818,115.199987 L121.225818,111.659988 C117.269358,111.659988 114.053988,108.839789 114.053988,105.370589 C114.053988,104.067198 115.1243,103.01059 116.444598,103.01059 C117.764895,103.01059 118.835208,104.067198 118.835208,105.370589 C118.835208,106.113989 119.815358,106.939989 121.225818,106.939989 L126.007039,106.939989 C127.417499,106.939989 128.397649,106.113989 128.397649,105.370589 L128.397649,101.429391 C128.397649,100.686062 127.417499,99.859991 126.007039,99.859991 L121.225818,99.859991 C118.326181,99.9402713 115.662602,98.2897645 114.475309,95.6769866 C112.343636,99.0522102 109.761241,102.12867 106.797744,104.823424 C109.443443,109.204153 111.056001,114.116754 111.515781,119.196752 L111.519941,119.200186 C111.530591,119.329254 111.536352,119.460187 111.54613,119.58968 C111.616545,120.478444 111.663377,121.373662 111.663377,122.279985 C111.663377,123.026346 111.630471,123.76492 111.582539,124.499564 C122.717505,129.336437 135.711224,127.026522 144.437512,118.658881 C153.1638,110.29124 155.880447,97.5364784 151.306629,86.4081182 C146.732811,75.2797579 135.781693,68 123.616429,68 L123.616429,68 Z" id="Shape"></path>
                    </g>
                </g>
            </g>
        </g>
    </g>
</svg>