<?xml version="1.0" encoding="UTF-8"?>
<svg width="120px" height="120px" viewBox="0 0 120 120" version="1.1" xmlns="http://www.w3.org/2000/svg" xmlns:xlink="http://www.w3.org/1999/xlink">
    <!-- Generator: Sketch 64 (93537) - https://sketch.com -->
    <title>presenter</title>
    <desc>Created with Sketch.</desc>
    <g id="Education-Light" stroke="none" stroke-width="1" fill="none" fill-rule="evenodd">
        <g id="Landing" transform="translate(-1438.000000, -1857.000000)" fill="#000000" fill-rule="nonzero">
            <g id="Main-Feature" transform="translate(188.000000, 1406.000000)">
                <g id="Counter-2" transform="translate(1144.000000, 344.000000)">
                    <g id="presenter" transform="translate(105.500000, 106.500000)">
                        <path d="M30.5007438,3.00071282 C30.5007438,1.6276266 31.6268688,0.501487634 33.0014256,0.501487634 C34.3759824,0.501487634 35.5006198,1.6276266 35.5006198,3.00071282 C35.5006198,4.37528668 34.3759824,5.50142565 33.0014256,5.50142565 C31.6268688,5.50142565 30.5007438,4.37528668 30.5007438,3.00071282 Z M13.0004339,93.0010847 C11.618439,93.0010847 10.4997521,94.1182979 10.4997521,95.5003099 L10.4997521,97.9995351 L10.4997521,117.999287 C10.4997521,119.381299 11.618439,120.5 13.0004339,120.5 C14.3824288,120.5 15.4996296,119.381299 15.4996296,117.999287 L15.4996296,98.0010227 L15.4996296,95.5017976 C15.5011157,94.1182979 14.3824288,93.0010847 13.0004339,93.0010847 Z M25.5008678,30.5011157 C25.5008678,31.8831278 26.6195547,33.0003409 28.0015496,33.0003409 L58.0008058,33.0003409 C59.3828007,33.0003409 60.5,31.8831278 60.5,30.5011157 C60.5,29.1191037 59.3828007,28.0004029 58.0008058,28.0004029 L28.000062,28.0004029 C26.6195547,28.0004029 25.5008678,29.1191037 25.5008678,30.5011157 Z M48.0010537,20.5012397 C48.0010537,19.1266658 46.8749287,18.0005269 45.5003719,18.0005269 C44.1258151,18.0005269 43.0011777,19.1266658 43.0011777,20.5012397 C43.0011777,21.8758135 44.1258151,23.0004649 45.5003719,23.0004649 C46.8749287,23.0004649 48.0010537,21.8758135 48.0010537,20.5012397 Z M58.0008058,23.0004649 C59.3753626,23.0004649 60.5,21.8758135 60.5,20.5012397 C60.5,19.1266658 59.3753626,18.0005269 58.0008058,18.0005269 L55.500124,18.0005269 C54.1255672,18.0005269 53.0009298,19.1266658 53.0009298,20.5012397 C53.0009298,21.8758135 54.1255672,23.0004649 55.500124,23.0004649 L58.0008058,23.0004649 Z M28.000062,23.0004649 L35.4991322,23.0004649 C36.873689,23.0004649 37.999814,21.8758135 37.999814,20.5012397 C37.999814,19.1266658 36.873689,18.0005269 35.4991322,18.0005269 L28.000062,18.0005269 C26.6255052,18.0005269 25.4993802,19.1266658 25.4993802,20.5012397 C25.5008678,21.8758135 26.6255052,23.0004649 28.000062,23.0004649 Z M50.5002479,40.5009918 C50.5002479,39.1264179 49.3756105,38.0002789 48.0010537,38.0002789 L28.000062,38.0002789 C26.6255052,38.0002789 25.4993802,39.1264179 25.4993802,40.5009918 C25.4993802,41.8755656 26.6255052,43.0002169 28.000062,43.0002169 L47.9995661,43.0002169 C49.3756105,43.0002169 50.5002479,41.8755656 50.5002479,40.5009918 Z M58.0008058,38.0002789 C56.626249,38.0002789 55.500124,39.1264179 55.500124,40.5009918 C55.500124,41.8755656 56.626249,43.0002169 58.0008058,43.0002169 C59.3753626,43.0002169 60.5,41.8755656 60.5,40.5009918 C60.5,39.1264179 59.3753626,38.0002789 58.0008058,38.0002789 Z M45.5003719,53.000093 L58.0008058,53.000093 C59.3828007,53.000093 60.5,51.8828798 60.5,50.5008678 C60.5,49.1188558 59.3828007,48.0016426 58.0008058,48.0016426 L45.5003719,48.0016426 C44.118377,48.0016426 43.0011777,49.1188558 43.0011777,50.5008678 C43.0011777,51.8828798 44.118377,53.000093 45.5003719,53.000093 Z M120.5,95.5003099 C120.5,96.8823219 119.382801,97.9995351 118.000806,97.9995351 L115.500124,97.9995351 L50.5002479,97.9995351 L50.5002479,117.999287 C50.5002479,119.381299 49.3830486,120.5 48.0010537,120.5 C46.6190588,120.5 45.5003719,119.381299 45.5003719,117.999287 L45.5003719,98.0010227 L45.5003719,95.5017976 C45.5003719,94.4247505 46.1891379,93.4696895 47.2096422,93.1319965 L47.5979099,93.0025724 L80.6542162,81.983667 C82.0585253,81.5150623 83.000186,80.2059443 83.000186,78.7302114 C83.000186,77.6144858 82.4795205,76.5984318 81.5735626,75.9468481 C80.6705799,75.2952644 79.5429673,75.1241865 78.4852726,75.4752681 L48.7924652,85.3710097 C48.5351077,85.4558049 48.2703122,85.5004339 48.0010537,85.5004339 L33.5042397,85.5004339 L35.02012,93.0010847 L35.5244217,95.5003099 L36.030211,97.9995351 L37.9507227,107.504029 C38.1113852,108.302888 37.8733667,109.130013 37.311048,109.722091 L32.311172,114.985341 C31.8395978,115.483698 31.1865346,115.764861 30.4992562,115.764861 C29.8134654,115.764861 29.1589145,115.483698 28.6873404,114.985341 L23.6874644,109.722091 C23.1266333,109.131501 22.8871272,108.302888 23.0477897,107.504029 L24.969789,97.9995351 L25.4755783,95.5003099 L25.9813676,93.0010847 L27.4972479,85.5004339 L13.0004339,85.5004339 C11.0784345,85.5004339 9.32899859,86.2323498 8.00055786,87.4254323 C6.4698014,88.8000062 5.49987603,90.7859976 5.49987603,93.0010847 L5.49987603,95.5003099 L5.49987603,97.9995351 L5.49987603,117.999287 C5.49987603,119.381299 4.38267672,120.5 3.00068182,120.5 C1.61868693,120.5 0.5,119.381299 0.5,117.999287 L0.5,93.0010847 C0.5,90.1998698 1.43719783,87.6188248 3.00068182,85.5331618 L3.00068182,3.00071282 C3.00068182,2.32532697 3.27440309,1.69903304 3.72515062,1.22596541 C4.1997,0.773724664 4.85127563,0.501487634 5.49987603,0.501487634 L23.000186,0.501487634 L23.0254754,0.501487634 C24.4000322,0.525289779 25.5008678,1.6276266 25.5008678,3.00071282 C25.5008678,4.37528668 24.3762304,5.50142565 23.0016736,5.50142565 L8.00055786,5.50142565 L8.00055786,81.5507655 C9.53280192,80.8783549 11.2227332,80.5004959 13.0004339,80.5004959 L19.7021422,80.5004959 C17.1062529,77.577295 15.5011157,73.6157255 15.5011157,69.2495196 C15.5011157,60.2894998 22.2296011,52.9986053 30.5007438,52.9986053 C38.7718865,52.9986053 45.5003719,60.2894998 45.5003719,69.2495196 C45.5003719,73.6157255 43.8952347,77.577295 41.2993454,80.5004959 L47.5949347,80.5004959 L76.9039372,70.7326908 C79.5087521,69.8594496 82.2727419,70.2864005 84.4997025,71.8885824 C86.7236878,73.4922519 88.0015496,75.9855266 88.0015496,78.7287237 C88.0015496,82.3615261 85.6838445,85.573328 82.2370391,86.7247567 L63.4068009,93.0025724 L113.00093,93.0025724 L113.00093,5.49993802 L43.0011777,5.49993802 C41.6266209,5.49993802 40.5004959,4.37379905 40.5004959,2.99922519 C40.5004959,1.62613897 41.6266209,0.5 43.0011777,0.5 L115.500124,0.5 C116.174014,0.5 116.8003,0.749922519 117.274849,1.22447778 C117.749399,1.6975454 118.000806,2.32383934 118.000806,2.99922519 L118.000806,93.0010847 C119.381313,93.0010847 120.5,94.1182979 120.5,95.5003099 Z M30.5007438,80.5004959 C36.0153348,80.5004959 40.5004959,75.4544412 40.5004959,69.2495196 C40.5004959,63.044598 36.0153348,57.9985434 30.5007438,57.9985434 C24.9861528,57.9985434 20.5009917,63.044598 20.5009917,69.2495196 C20.5009917,75.4544412 24.9861528,80.5004959 30.5007438,80.5004959 Z M30.9291771,98.0010227 L30.5007438,95.8826319 L30.0723105,98.0010227 L28.2083282,107.221379 L30.5007438,109.634321 L32.7931594,107.221379 L30.9291771,98.0010227 Z M68.0005579,50.5008678 L78.0003099,50.5008678 L78.0003099,43.0002169 C78.0003099,41.6196926 79.1175092,40.5009918 80.4995041,40.5009918 L92.999938,40.5009918 C94.3819329,40.5009918 95.4991322,41.6196926 95.4991322,43.0002169 L95.4991322,45.5009298 L105.498884,45.5009298 C106.880879,45.5009298 107.999566,46.6196306 107.999566,48.0016426 L107.999566,62.999969 C107.999566,64.381981 106.880879,65.5006818 105.498884,65.5006818 L92.999938,65.5006818 L80.4995041,65.5006818 L68.0005579,65.5006818 C66.618563,65.5006818 65.499876,64.381981 65.499876,62.999969 L65.499876,53.000093 C65.499876,51.618081 66.618563,50.5008678 68.0005579,50.5008678 Z M102.99969,50.5008678 L95.4991322,50.5008678 L95.4991322,60.5007438 L102.99969,60.5007438 L102.99969,50.5008678 Z M83.000186,60.5007438 L90.4992562,60.5007438 L90.4992562,48.0016426 L90.4992562,45.5009298 L83.000186,45.5009298 L83.000186,53.000093 L83.000186,60.5007438 Z M78.0003099,55.5008058 L70.4997521,55.5008058 L70.4997521,60.5007438 L78.0003099,60.5007438 L78.0003099,55.5008058 Z M91.4662063,26.7507903 L93.9654005,26.7507903 C95.3473954,26.7507903 96.4660824,25.6320895 96.4660824,24.2500775 C96.4660824,22.8680655 95.3473954,21.7493647 93.9654005,21.7493647 L91.4662063,21.7493647 C90.0842114,21.7493647 88.9655245,22.8680655 88.9655245,24.2500775 C88.9670121,25.6320895 90.0842114,26.7507903 91.4662063,26.7507903 Z M86.4663303,14.2502015 C85.0843354,14.2502015 83.9656485,15.3689023 83.9656485,16.7509143 L83.9656485,19.2501395 C83.9656485,20.6321515 85.0843354,21.7493647 86.4663303,21.7493647 C87.8483252,21.7493647 88.965526,20.6321515 88.965526,19.2501395 L88.965526,16.7509143 C88.9670121,15.3689023 87.8483252,14.2502015 86.4663303,14.2502015 Z M81.4664543,21.7493647 L78.9657724,21.7493647 C77.5837776,21.7493647 76.4665782,22.8680655 76.4665782,24.2500775 C76.4665782,25.6320895 77.5837776,26.7507903 78.9657724,26.7507903 L81.4664543,26.7507903 C82.8484492,26.7507903 83.9656485,25.6320895 83.9656485,24.2500775 C83.9656485,22.8680655 82.8484492,21.7493647 81.4664543,21.7493647 Z M83.9656485,31.7507283 C83.9656485,33.1327403 85.0843354,34.2499535 86.4663303,34.2499535 C87.8483252,34.2499535 88.9655245,33.1327403 88.9655245,31.7507283 L88.9655245,29.2500155 C88.9655245,27.8680035 87.8483252,26.7507903 86.4663303,26.7507903 C85.0843354,26.7507903 83.9656485,27.8680035 83.9656485,29.2500155 L83.9656485,31.7507283 Z" id="Shape"></path>
                    </g>
                </g>
            </g>
        </g>
    </g>
</svg>