<?xml version="1.0" encoding="UTF-8"?>
<svg width="180px" height="132px" viewBox="0 0 180 132" version="1.1" xmlns="http://www.w3.org/2000/svg" xmlns:xlink="http://www.w3.org/1999/xlink">
    <!-- Generator: Sketch 64 (93537) - https://sketch.com -->
    <title>unlimited</title>
    <desc>Created with Sketch.</desc>
    <g id="Education-Light" stroke="none" stroke-width="1" fill="none" fill-rule="evenodd">
        <g id="Landing" transform="translate(-1407.000000, -2343.000000)" fill="#000000">
            <g id="Main-Feature" transform="translate(188.000000, 1406.000000)">
                <g id="Counter-4" transform="translate(1144.000000, 835.000000)">
                    <g id="unlimited" transform="translate(75.000000, 102.000000)">
                        <g id="PL_x5F_Reset_1_">
                            <path d="M130.995088,64.828125 L146,51 L146,51 C148.209139,50.4477153 149.459025,52.1638989 149,54 L149,54 L128.82898,73.25 L107,51 L107,51 C106.447715,47.1340068 110,48 110,48 L110,48 L126.594106,64.79375 C126.508246,36.609296 106.959713,12.1868216 81,5 C81,5 80,4.5 80,3 C80,1.5 81,1 81,1 C81,1 82.3838957,1.30737379 82.618625,1.37213871 C110.480292,9.05954119 130.937837,34.5492397 130.995088,64.828125 Z" id="Shape"></path>
                            <circle id="Oval" cx="73" cy="2" r="2"></circle>
                            <circle id="Oval" cx="151" cy="49" r="2"></circle>
                            <path d="M66.0147354,4.4 C32.0446528,4.4 4.40098236,32.0375 4.40098236,66 C4.40098236,99.9625 32.0446528,127.6 66.0147354,127.6 C93.0395177,127.6 116.041527,110.06875 124.293369,85.8 L128.556821,87.003125 C119.754856,113.1625 95.1024782,132 66.0147354,132 C29.5691002,132 0,102.4375 0,66 C0,29.5625 29.5691002,0 66.0147354,0 C67.6368821,0 67.6384559,4.4 66.0147354,4.4 Z" id="Shape-Copy"></path>
                        </g>
                        <path d="M160.603249,49.5577404 C165.211133,53.9586538 167.745245,59.8113942 167.738693,66.0380288 C167.732142,72.2448077 165.199754,78.0692788 160.608766,82.436875 C155.968124,86.8438462 149.808877,89.2709615 143.264462,89.2709615 C136.720391,89.2709615 130.560799,86.8438462 125.922916,82.4395673 L82.6361185,41.2169712 C75.6861898,34.6285577 66.474905,31 56.6987985,31 C51.5809835,31 50,33 50,37 C50,41 52,43 56.6991433,42.7290385 C63.2435589,42.7290385 69.4031508,45.1561538 74.0410343,49.5604327 L117.327487,90.7826923 C124.27707,97.3714423 133.488355,101 143.264462,101 C153.083671,101 162.29668,97.3694231 169.199713,90.784375 C176.157917,84.1973077 179.99305,75.3954808 179.998567,66.0016827 C180.004429,56.633125 176.185503,47.8329808 169.247299,41.2230288 C162.337369,34.6305769 155.968469,45.1561538 160.603249,49.5577404 Z" id="Shape"></path>
                        <path d="M20.0002096,65.9976442 C20.0004192,71.9952885 23.8122394,84.1616346 30.7559613,90.7769712 C37.6662352,97.3694231 46.8795889,101 56.6987985,101 C66.5176632,101 75.7310169,97.3694231 82.6374978,90.7816827 L94,80 L94,80 C95.6568542,73.372583 89.4201711,70.7563014 86,72 L86,72 L74.043448,82.436875 C69.402806,86.8438462 63.243214,89.2709615 56.6987985,89.2709615 C50.1550725,89.2709615 43.9958254,86.8438462 39.3610454,82.4422596 C34.7528168,78.0413462 32.21836,72.1882692 32.2252565,65.9616346 C32.2285748,62.8180797 29.0961751,59.9244159 26,60 C22.982945,60.0736526 20.0001061,63.0376342 20.0002096,65.9976442 Z" id="Shape"></path>
                        <path d="M26.5642384,37.3277467 C24.5121176,42.9659025 28.3538048,52.8775844 33.3079202,56.8090905 C38.2620356,60.7405966 44.1592948,53.3094235 43.30597,49.8063053 C42.4526452,46.3031872 38.1050525,45.9149587 40.2978854,38.5547193 C41.8584238,33.316775 29.3003996,29.8102058 26.5642384,37.3277467 Z" id="Shape" transform="translate(34.694463, 45.463399) rotate(60.000000) translate(-34.694463, -45.463399) "></path>
                    </g>
                </g>
            </g>
        </g>
    </g>
</svg>